<?xml version="1.0" encoding="UTF-8"?>
<svg id="Capa_2" data-name="Capa 2" xmlns="http://www.w3.org/2000/svg" viewBox="0 0 78.08 76.36">
  <g id="Capa_1-2" data-name="Capa 1">
    <g>
      <path d="M78.08,12.21v51.95c-.13.56-.26,1.12-.4,1.68-1.62,6.3-7.06,10.51-13.64,10.52-16.44.01-32.88,0-49.32,0-.79,0-1.57-.04-2.36-.12C5.45,75.58,0,69.61,0,62.66,0,46.34,0,30.02.02,13.7c0-1.06.14-2.14.39-3.16C1.98,4.29,7.43.04,13.88.01c5.69-.02,11.38,0,17.08,0,11.05,0,22.11-.01,33.16,0,6.31,0,11.67,4.02,13.43,10,.21.72.36,1.46.54,2.2ZM25.61,43.05c.36,0,.63.01.9,0,2.08-.09,4.18-.01,6.22-.31,5.44-.78,9.84-4.01,10.35-10.29.37-4.48-1.07-8.21-4.97-10.75-2.16-1.4-4.58-2.09-7.12-2.14-3.32-.07-6.65.04-9.98.07-.78,0-1.56,0-2.37,0-.03.34-.06.54-.06.73,0,10.94,0,21.89-.01,32.83,0,.55.15.76.73.75,1.75-.03,3.51-.01,5.26-.01q1.04,0,1.04-1.07c0-3.23,0-6.46,0-9.82ZM54.52,31.04c-.11-.69-.24-1.47-.35-2.24-.1-.7-.48-1-1.19-.99-1.63.02-3.25.03-4.88,0-.61-.01-.72.24-.69.77.08,1.55.15,3.1.16,4.66.02,6.57.02,13.14.03,19.71,0,.96.03.99.98.99,1.8,0,3.61-.03,5.41.02.74.02.94-.21.94-.95-.03-5.14,0-10.29-.03-15.43,0-.58.2-.95.64-1.27,1.29-.94,2.78-1.36,4.31-1.61,1.12-.18,2.26-.23,3.47-.35,0-2.23.01-4.44-.03-6.65,0-.13-.38-.36-.59-.37-1.61-.04-3.15.31-4.52,1.14-1.29.78-2.47,1.73-3.67,2.58Z"/>
      <path d="M25.69,25.87c2.38.02,4.74-.33,7.03.51,2.22.82,3.44,2.62,3.35,5-.12,2.92-1.42,4.57-4.5,5.19-1.89.38-3.87.36-5.88.53v-11.23Z"/>
    </g>
  </g>
</svg>