<?xml version="1.0" encoding="UTF-8"?>
<svg id="Capa_2" data-name="Capa 2" xmlns="http://www.w3.org/2000/svg" viewBox="0 0 383.46 383.28">
  <defs>
    <style>
      .cls-1 {
        fill: #eadfd8;
      }
    </style>
  </defs>
  <g id="Capa_1-2" data-name="Capa 1">
    <g>
      <path class="cls-1" d="M383.46,46.44v290.43c-1.01,2.83-1.18,5.8-2.05,8.8-4.87,16.8-18.7,30.76-35.56,35.56-3,.85-5.98,1.05-8.8,2.05H46.61c-24.88-3.47-44.27-23.06-46.4-48.29C1,236.9-1.42,138.47,1.44,40.57,6.74,18.1,26.07,1.58,49.2,0l285.96.04c24.17,1.66,45.92,22.12,48.29,46.4ZM154.03,116.8h-81.96v147.46c22.87-.81,46.47,1.07,69.27.03,31.71-1.44,56.48-14.11,53.48-49.8-1.29-15.3-12.02-25.98-26.19-30.34,7.11-4.96,13.43-9.58,16.83-17.97,10.01-24.75-5.97-46.81-31.42-49.39ZM287.64,126.53h-59.88v14.97h59.88v-14.97ZM311.6,217.86v-13.85c0-19.44-19.03-41.67-37.03-47.56-54.2-17.71-92.57,50.19-57.31,91.74,25.38,29.91,82.62,23.35,91.34-17.61h-24.33c-13.28,23.31-49.36,17.49-50.55-10.86l1.14-1.86h76.73Z"/>
      <g>
        <path class="cls-1" d="M281.66,199.14h-47.16c3.01-30.61,43.25-30.59,47.16,0Z"/>
        <g>
          <path class="cls-1" d="M104.25,238.81v-39.3l1.12-1.12h35.93c1.44,0,7.85,1.77,9.56,2.42,14.52,5.46,16.35,25.78,3.79,34.14-1.83,1.22-8.44,3.87-10.35,3.87h-40.05Z"/>
          <path class="cls-1" d="M104.25,175.94v-33.68h37.8c.84,0,6.56,2.21,7.64,2.84,8.91,5.22,10.4,19.24,2.49,26.01-2.04,1.75-9.16,4.84-11.63,4.84h-36.3Z"/>
        </g>
      </g>
    </g>
  </g>
</svg>