<?xml version="1.0" encoding="UTF-8"?>
<svg id="Capa_2" data-name="Capa 2" xmlns="http://www.w3.org/2000/svg" viewBox="0 0 78.08 76.23">
  <g id="Capa_1-2" data-name="Capa 1">
    <path d="M0,64.03C0,46.74,0,29.46,0,12.18c.13-.56.25-1.12.4-1.68C2.02,4.21,7.47,0,14.04,0,30.53,0,47.02,0,63.51,0c.73,0,1.47.04,2.2.11,6.94.68,12.35,6.6,12.36,13.55,0,16.29,0,32.57,0,48.86,0,1.88-.36,3.69-1.17,5.38-2.56,5.37-6.87,8.18-12.79,8.26-7.34.1-14.69.02-22.03.02-9.38,0-18.75.01-28.13,0-6.31-.01-11.68-4.02-13.43-9.98-.21-.72-.36-1.46-.54-2.19ZM27.03,47.25c0-.4,0-.69,0-.99,0-8.54,0-17.08,0-25.61q0-1.05-1.08-1.05c-1.65,0-3.3,0-4.95,0q-1.14,0-1.14,1.12c0,10.62,0,21.24,0,31.86,0,.18,0,.36,0,.53,0,.5.22.72.75.71,6.71-.01,13.42-.01,20.12,0,.49,0,.72-.16.8-.67.26-1.7.56-3.4.87-5.1.12-.65-.12-.82-.76-.82-4.55.02-9.1.01-13.64.01h-.96ZM45.9,27.87c0,.33,0,.53,0,.73.09,2.99.23,5.99.26,8.98.04,5.08.03,10.16,0,15.25,0,.75.17,1.03.97,1.01,1.78-.06,3.56-.05,5.34,0,.74.02.94-.22.94-.94-.03-4.96.03-9.91-.05-14.86-.02-1.18.44-1.79,1.39-2.23.21-.1.41-.2.62-.29,1.83-.77,3.73-1.14,5.71-1.05.57.03.75-.17.74-.73-.03-1.8,0-3.61-.01-5.41,0-.99-.1-1.06-1.1-.99-2.8.18-5.1,1.39-7.05,3.35-.16.16-.21.44-.31.66-.08-.09-.16-.18-.24-.26-.12-.75-.16-1.52-.38-2.24-.11-.37-.53-.9-.82-.91-1.97-.08-3.95-.04-6-.04Z"/>
  </g>
</svg>