<?xml version="1.0" encoding="UTF-8"?>
<svg id="Capa_2" data-name="Capa 2" xmlns="http://www.w3.org/2000/svg" viewBox="0 0 33 33">
  <g id="Capa_1-2" data-name="Capa 1">
    <g>
      <path d="M33,5.28v22.45c-.06.24-.11.49-.17.73-.69,2.72-2.98,4.54-5.77,4.54-6.95,0-13.9,0-20.84,0-.33,0-.67-.02-1-.05C2.3,32.66,0,30.08,0,27.08,0,20.03,0,12.97,0,5.92c0-.46.06-.92.17-1.37C.84,1.85,3.14.02,5.87,0c2.41-.01,4.81,0,7.22,0,4.67,0,9.34,0,14.01,0,2.67,0,4.93,1.74,5.67,4.32.09.31.15.63.23.95ZM10.39,18.61c.18,0,.32,0,.46,0,.88-.04,1.76-.01,2.63-.14,2.33-.33,4.02-1.85,4.28-4.22.18-1.73-.17-3.29-1.51-4.48-1.02-.9-2.25-1.29-3.56-1.32-1.61-.04-3.22.03-4.83.05q-.43,0-.43.46c0,4.62,0,9.24,0,13.86,0,.06,0,.11,0,.16-.02.24.07.33.32.32.77-.01,1.55-.01,2.32,0,.26,0,.34-.08.33-.34-.01-.9,0-1.8,0-2.71,0-.54,0-1.07,0-1.66ZM19.32,20.18c0,.07-.02.17-.02.27,0,.7,0,1.41,0,2.11,0,.26.09.39.33.49,1.05.44,2.16.55,3.28.54.89,0,1.76-.14,2.55-.56,1.08-.57,1.71-1.48,1.81-2.73.1-1.34-.45-2.35-1.59-2.99-.57-.32-1.18-.57-1.77-.86-.5-.25-1.03-.46-1.47-.79-.47-.35-.31-.97.26-1.13.27-.07.55-.13.82-.12.96.02,1.9.17,2.78.61.32.16.41.09.41-.26,0-.66-.01-1.32,0-1.98,0-.28-.1-.41-.35-.5-.97-.33-1.98-.38-2.99-.36-.8.01-1.57.17-2.29.56-1.46.79-2.13,2.53-1.55,4.07.31.83.92,1.4,1.68,1.79.71.37,1.47.67,2.19,1.02.27.13.53.3.74.5.3.3.21.77-.16.97-.14.08-.3.12-.46.15-.72.14-1.44.09-2.14-.1-.69-.19-1.35-.46-2.06-.7Z"/>
      <path d="M10.42,13.6c0-.71,0-1.43,0-2.14,0-.16.02-.29.22-.28.81.04,1.63,0,2.43.14.86.14,1.5.67,1.69,1.59.18.86.11,1.7-.6,2.32-.62.54-1.37.69-2.15.74-.42.02-.84,0-1.25,0-.24,0-.34-.06-.33-.33.02-.68,0-1.36,0-2.04Z"/>
    </g>
  </g>
</svg>