<?xml version="1.0" encoding="UTF-8"?>
<svg id="Capa_2" data-name="Capa 2" xmlns="http://www.w3.org/2000/svg" viewBox="0 0 33 33">
  <g id="Capa_1-2" data-name="Capa 1">
    <g>
      <path d="M33,5.28v22.45c-.06.24-.11.48-.17.73-.69,2.72-2.99,4.54-5.77,4.55-6.95,0-13.9,0-20.84,0-.33,0-.67-.02-1-.05C2.31,32.66,0,30.08,0,27.08,0,20.03,0,12.97,0,5.92c0-.46.06-.92.17-1.37C.84,1.86,3.14.02,5.87,0c2.33-.01,4.66,0,6.99,0,4.75,0,9.49,0,14.24,0,2.66,0,4.93,1.74,5.67,4.32.09.31.15.63.23.95ZM17.64,23.25c-.04-.18-.06-.3-.1-.41-1.63-4.69-3.26-9.37-4.89-14.06-.08-.22-.18-.28-.39-.28-1.06.01-2.13,0-3.19,0-.09,0-.19.01-.22.02-.13.58-.21,1.14-.39,1.66-1.41,4.19-2.84,8.37-4.26,12.55-.05.15-.08.31-.11.46.07.03.1.05.13.05.87,0,1.74.01,2.61,0,.09,0,.21-.12.27-.21.07-.1.09-.24.13-.37.3-.97.61-1.94.91-2.9h5.12c.03.09.07.18.1.28.33.98.67,1.97.99,2.95.07.2.16.28.37.27.3-.01.6,0,.9,0,.65,0,1.31,0,2.02,0ZM21.42,18.45c1.56,0,3.11,0,4.65,0,.63,0,1.26-.01,1.9-.05.09,0,.25-.19.25-.3.02-.73.1-1.48,0-2.2-.23-1.69-1.01-3.02-2.64-3.68-.74-.3-1.52-.4-2.31-.35-1.59.1-2.91.73-3.83,2.1-1.09,1.63-1.36,3.43-.97,5.35.34,1.68,1.21,2.96,2.77,3.69.8.37,1.66.51,2.53.52,1.11.01,2.21-.09,3.25-.51.12-.05.28-.19.29-.29.02-.76.01-1.53.01-2.29-.04,0-.06-.02-.07-.01-.08.03-.16.06-.24.08-1.16.32-2.32.57-3.52.28-1.26-.3-1.98-1.09-2.09-2.34Z"/>
      <path d="M10.7,11.14c.58,1.92,1.16,3.85,1.75,5.82h-3.52c.57-1.96,1.14-3.88,1.7-5.81.02,0,.04,0,.06-.01Z"/>
      <path d="M21.41,16.38c.19-1.62,1.35-2.36,2.73-1.99.69.19,1.17.85,1.25,1.56.04.31-.08.42-.36.42-.89,0-1.78,0-2.67.01-.32,0-.64,0-.96,0Z"/>
    </g>
  </g>
</svg>