<?xml version="1.0" encoding="UTF-8"?>
<svg id="Capa_2" data-name="Capa 2" xmlns="http://www.w3.org/2000/svg" viewBox="0 0 33 33">
  <g id="Capa_1-2" data-name="Capa 1">
    <g>
      <path d="M33,5.28v22.45c-.06.24-.11.49-.17.73-.69,2.72-2.99,4.54-5.77,4.54-6.95,0-13.9,0-20.84,0-.33,0-.67-.02-1-.05C2.3,32.66,0,30.08,0,27.08,0,20.03,0,12.97,0,5.92c0-.46.06-.92.17-1.37C.84,1.85,3.14.02,5.87,0c2.41-.01,4.81,0,7.22,0,4.67,0,9.34,0,14.01,0,2.67,0,4.93,1.74,5.67,4.32.09.31.15.63.23.95ZM10.82,18.6c.15,0,.27,0,.38,0,.88-.04,1.76,0,2.63-.13,2.3-.34,4.16-1.73,4.38-4.45.15-1.94-.45-3.55-2.1-4.65-.91-.61-1.94-.9-3.01-.92-1.4-.03-2.81.02-4.22.03-.33,0-.66,0-1,0-.01.15-.02.23-.02.32,0,4.73,0,9.46,0,14.19,0,.24.06.33.31.32.74-.01,1.48,0,2.22,0q.44,0,.44-.46c0-1.4,0-2.79,0-4.24ZM23.04,13.42c-.05-.3-.1-.63-.15-.97-.04-.3-.2-.43-.5-.43-.69,0-1.38.01-2.06,0-.26,0-.3.1-.29.33.03.67.07,1.34.07,2.01,0,2.84,0,5.68.01,8.52,0,.41.01.43.42.43.76,0,1.53-.01,2.29,0,.31,0,.4-.09.4-.41-.01-2.22,0-4.45-.01-6.67,0-.25.08-.41.27-.55.54-.4,1.17-.59,1.82-.7.47-.08.95-.1,1.47-.15,0-.96,0-1.92-.01-2.87,0-.06-.16-.16-.25-.16-.68-.02-1.33.14-1.91.49-.54.34-1.05.75-1.55,1.11Z"/>
      <path d="M10.86,11.18c1.01,0,2-.14,2.97.22.94.35,1.46,1.13,1.41,2.16-.05,1.26-.6,1.97-1.9,2.24-.8.16-1.63.16-2.49.23v-4.85Z"/>
    </g>
  </g>
</svg>