<?xml version="1.0" encoding="UTF-8"?>
<svg id="Capa_2" data-name="Capa 2" xmlns="http://www.w3.org/2000/svg" viewBox="0 0 33 33">
  <g id="Capa_1-2" data-name="Capa 1">
    <g>
      <path d="M0,27.72c0-7.48,0-14.96,0-22.44.06-.24.11-.49.17-.73C.86,1.82,3.16,0,5.93,0,12.89,0,19.85,0,26.81,0c.32,0,.64.02.96.05,2.93.29,5.22,2.86,5.22,5.86,0,7.05,0,14.1,0,21.15,0,.81-.15,1.6-.49,2.33-1.08,2.33-2.9,3.54-5.41,3.58-3.1.04-6.21.01-9.31.01-3.96,0-7.93,0-11.89,0-2.67,0-4.93-1.74-5.68-4.32-.09-.31-.15-.63-.23-.95ZM21.27,11.87c-.61,0-1.17-.04-1.73,0-1.64.15-3.04.82-4.1,2.13-1.07,1.31-1.41,2.83-1.28,4.52.19,2.35,1.49,4.07,3.72,4.7,2.16.61,4.27.25,6.32-.56.09-.04.18-.24.18-.36,0-.64-.06-1.27-.06-1.91,0-4.26,0-8.51,0-12.77,0-.29-.06-.4-.37-.39-.78.02-1.57.02-2.35,0-.25,0-.34.07-.33.33.01,1.12,0,2.24,0,3.36,0,.29,0,.59,0,.93ZM11.99,15.87c0-2.33,0-4.66,0-7,0-.31-.09-.43-.41-.42-.76.02-1.52.01-2.29,0-.25,0-.37.06-.37.35,0,4.72,0,9.44,0,14.16,0,.28.1.35.36.35.74-.01,1.48,0,2.22,0q.47,0,.47-.47c0-2.32,0-4.64,0-6.96Z"/>
      <path d="M21.27,17.62c0,.95,0,1.89,0,2.84,0,.16,0,.33-.21.32-.62-.02-1.25.03-1.85-.1-1.1-.25-1.81-1.21-1.92-2.44-.07-.84-.07-1.68.43-2.41.78-1.16,2.06-1.55,3.34-1.36.2.03.22.15.22.32,0,.95,0,1.89,0,2.84Z"/>
    </g>
  </g>
</svg>