<?xml version="1.0" encoding="UTF-8"?>
<svg id="Capa_2" data-name="Capa 2" xmlns="http://www.w3.org/2000/svg" viewBox="0 0 78.08 76.23">
  <g id="Capa_1-2" data-name="Capa 1">
    <g>
      <path d="M0,64.03C0,46.74,0,29.46,0,12.18c.13-.56.25-1.12.4-1.68C2.02,4.21,7.47,0,14.04,0,30.51,0,46.97,0,63.44,0c.76,0,1.52.04,2.28.12,6.94.68,12.35,6.6,12.36,13.55,0,16.29,0,32.57,0,48.86,0,1.88-.36,3.69-1.17,5.38-2.56,5.37-6.87,8.18-12.79,8.26-7.34.1-14.69.02-22.03.02-9.38,0-18.75.01-28.13,0-6.31-.01-11.68-4.02-13.43-9.98-.21-.72-.36-1.46-.54-2.19ZM50.32,27.42c-1.45,0-2.78-.1-4.08.02-3.87.36-7.18,1.9-9.7,4.92-2.53,3.03-3.34,6.54-3.03,10.44.44,5.42,3.53,9.41,8.79,10.86,5.12,1.41,10.1.57,14.95-1.29.22-.08.42-.55.42-.84-.01-1.47-.15-2.94-.15-4.41-.02-9.83-.01-19.66,0-29.49,0-.68-.15-.92-.88-.9-1.85.05-3.71.04-5.56,0-.6-.01-.79.15-.79.77.03,2.59.01,5.18.01,7.77,0,.68,0,1.36,0,2.14ZM28.37,36.65c0-5.39-.01-10.77.01-16.16,0-.73-.22-.99-.96-.97-1.8.04-3.61.03-5.41,0-.59,0-.87.13-.86.8.02,10.9.02,21.8,0,32.7,0,.65.24.81.85.8,1.75-.03,3.51-.01,5.26-.01q1.11,0,1.11-1.08c0-5.36,0-10.72,0-16.08Z"/>
      <path d="M50.32,40.71c0,2.18,0,4.37,0,6.55,0,.38.01.76-.5.74-1.46-.05-2.97.07-4.37-.24-2.6-.57-4.29-2.78-4.55-5.63-.18-1.94-.16-3.88,1.01-5.57,1.85-2.67,4.86-3.58,7.9-3.14.48.07.52.34.52.74-.01,2.18,0,4.37,0,6.55Z"/>
    </g>
  </g>
</svg>