<?xml version="1.0" encoding="UTF-8"?>
<svg id="Capa_2" data-name="Capa 2" xmlns="http://www.w3.org/2000/svg" viewBox="0 0 78.08 76.36">
  <g id="Capa_1-2" data-name="Capa 1">
    <g>
      <path d="M78.08,12.21v51.95c-.13.56-.26,1.12-.4,1.68-1.62,6.3-7.06,10.51-13.64,10.52-16.44.01-32.88,0-49.32,0-.79,0-1.57-.04-2.36-.12C5.45,75.58,0,69.61,0,62.66,0,46.34,0,30.02.02,13.7c0-1.06.14-2.14.39-3.16C1.98,4.29,7.43.04,13.88.01c5.69-.02,11.38,0,17.08,0,11.05,0,22.11-.01,33.16,0,6.31,0,11.67,4.02,13.43,10,.21.72.36,1.46.54,2.2ZM44.43,53.92c.94,0,1.88,0,2.82,0,1.05,0,1.05,0,.69-1.04-.78-2.2-1.55-4.4-2.33-6.6-3.05-8.63-6.11-17.27-9.15-25.9-.16-.45-.29-.82-.91-.81-2.57.03-5.13.02-7.7,0-.48,0-.63.17-.71.66-.19,1.19-.34,2.42-.73,3.55-3.32,9.7-6.7,19.38-10.05,29.06-.34.99-.28,1.08.77,1.08,1.7,0,3.41-.02,5.11.01.65.01.94-.23,1.13-.84.68-2.23,1.43-4.44,2.13-6.67.14-.45.34-.63.84-.62,3.61.03,7.22.03,10.83,0,.58,0,.78.22.95.72.74,2.24,1.53,4.46,2.28,6.7.17.51.43.74.98.72,1.02-.04,2.03-.01,3.05-.01ZM58.87,40.93c0-4.07,0-8.15.01-12.22,0-.59-.17-.81-.78-.8-1.85.03-3.71.05-5.56,0-.77-.02-.93.26-.92.96.03,2.49.01,4.99.01,7.49,0,5.53,0,11.05,0,16.58,0,.97.03,1,.97,1,1.78,0,3.56-.03,5.34.02.73.02.96-.21.95-.95-.03-4.02-.01-8.05-.01-12.07ZM59.33,21.04c0-2.42-1.6-4.06-3.97-4.07-2.31-.01-4.09,1.73-4.11,4.01-.02,2.46,1.64,4.14,4.09,4.14,2.32,0,3.99-1.7,3.99-4.08Z"/>
      <path d="M31.77,25.7c1.37,4.47,2.74,8.94,4.13,13.48h-8.29c1.34-4.52,2.67-8.99,3.99-13.46.06,0,.11-.02.17-.02Z"/>
    </g>
  </g>
</svg>