<?xml version="1.0" encoding="UTF-8"?>
<svg id="Capa_2" data-name="Capa 2" xmlns="http://www.w3.org/2000/svg" viewBox="0 0 78.08 76.21">
  <g id="Capa_1-2" data-name="Capa 1">
    <g>
      <path d="M78.08,12.18v51.85c-.13.56-.26,1.12-.4,1.68-1.62,6.29-7.06,10.49-13.64,10.5-16.44.01-32.88,0-49.32,0-.79,0-1.57-.04-2.36-.12C5.45,75.43,0,69.48,0,62.54,0,46.25,0,29.96.02,13.67c0-1.05.14-2.14.39-3.16C1.98,4.28,7.43.04,13.88.01c5.69-.02,11.38,0,17.08,0,11.05,0,22.11-.01,33.16,0,6.31,0,11.67,4.01,13.43,9.98.21.72.36,1.46.54,2.19ZM24.59,42.97c.44,0,.76.01,1.09,0,2.08-.09,4.18-.03,6.23-.31,5.52-.76,9.52-4.27,10.12-9.74.44-3.99-.41-7.6-3.58-10.34-2.41-2.08-5.32-2.98-8.42-3.05-3.81-.09-7.62.06-11.43.1q-1.02.01-1.02,1.06c0,10.67,0,21.35,0,32.02,0,.13,0,.25,0,.38-.04.55.17.76.75.75,1.83-.03,3.66-.03,5.49,0,.61.01.8-.19.79-.79-.03-2.08-.01-4.17-.01-6.25,0-1.24,0-2.48,0-3.83ZM45.72,46.62c-.02.17-.06.39-.06.61,0,1.63.01,3.25-.01,4.88,0,.6.22.91.78,1.13,2.49,1.01,5.1,1.28,7.76,1.26,2.1-.02,4.15-.33,6.04-1.3,2.56-1.32,4.05-3.41,4.28-6.31.24-3.1-1.06-5.43-3.77-6.92-1.35-.74-2.79-1.31-4.18-1.99-1.18-.58-2.43-1.07-3.48-1.83-1.11-.81-.73-2.24.61-2.61.63-.17,1.3-.29,1.95-.27,2.27.06,4.49.4,6.57,1.4.76.36.96.22.97-.6,0-1.52-.02-3.05.01-4.57.02-.65-.23-.96-.83-1.15-2.3-.75-4.68-.87-7.07-.83-1.9.03-3.72.4-5.42,1.3-3.44,1.82-5.03,5.84-3.66,9.4.74,1.92,2.18,3.24,3.97,4.14,1.69.86,3.47,1.54,5.18,2.35.63.3,1.26.68,1.76,1.17.71.68.49,1.78-.38,2.25-.33.18-.71.28-1.08.35-1.7.33-3.41.21-5.06-.23-1.62-.44-3.2-1.06-4.87-1.63Z"/>
      <path d="M24.65,31.4c0-1.65,0-3.3,0-4.95,0-.38.05-.67.51-.65,1.92.09,3.87.02,5.75.32,2.03.33,3.55,1.54,4,3.67.43,2,.26,3.92-1.43,5.36-1.46,1.25-3.25,1.6-5.09,1.71-.99.06-1.98-.01-2.97.02-.58.02-.8-.15-.79-.77.04-1.57.01-3.15.01-4.72Z"/>
    </g>
  </g>
</svg>