<?xml version="1.0" encoding="UTF-8"?>
<svg id="Capa_2" data-name="Capa 2" xmlns="http://www.w3.org/2000/svg" viewBox="0 0 76.36 76.36">
  <g id="Capa_1-2" data-name="Capa 1">
    <g>
      <path d="M69.35,76.36H7.01c-.11-.05-.21-.12-.32-.14-3.43-.77-5.56-2.89-6.5-6.25-.06-.21-.12-.41-.19-.62C0,48.57,0,27.79,0,7.01c.05-.13.12-.26.15-.4C.92,2.8,4.28,0,8.15,0,28.18,0,48.21,0,68.24,0c4.44,0,8.11,3.68,8.12,8.12.01,20.03,0,40.06,0,60.08,0,3.57-2.42,6.79-5.81,7.81-.4.12-.79.23-1.19.34ZM52.5,29.68c.26-.2.51-.39.75-.6,3.13-2.7,4.38-6.11,3.48-10.14-1.07-4.77-5.11-7.86-10.07-7.87-5.64-.01-11.28,0-16.92,0-.62,0-1.25.01-1.86.13-4.17.83-7.04,3.24-8.14,7.35-1.12,4.16.12,7.73,3.42,10.55.23.2.48.39.74.6-2.93,2.15-4.53,4.92-4.52,8.52.01,3.59,1.64,6.34,4.52,8.45-.32.25-.58.43-.82.64-3.1,2.69-4.34,6.08-3.45,10.08,1.17,5.24,5.95,8.43,11.4,7.78,4.91-.58,8.78-5.06,8.8-10.17,0-2.83,0-5.67,0-8.5,0-.23.02-.46.04-.75,5.29,4.34,11.96,2.65,15.06-1.4,3.07-4.02,3.05-10.72-2.43-14.67Z"/>
      <path d="M36.51,31.33v13.57s-.08.1-.12.1c-2.7-.03-5.42.12-8.1-.15-3.25-.33-5.62-3.33-5.63-6.66,0-3.33,2.38-6.21,5.6-6.71.88-.14,1.78-.13,2.67-.14,1.83-.02,3.67,0,5.58,0Z"/>
      <path d="M36.49,27.98c-2.72,0-5.4.25-8.02-.06-3.65-.43-5.9-3.4-5.8-7.1.08-3.24,2.65-6.07,6.13-6.36,2.53-.22,5.09-.04,7.69-.04v13.56Z"/>
      <path d="M39.85,28.04v-13.56c.06-.05.1-.1.14-.1,2.87.07,5.79-.15,8.6.3,3.39.54,5.49,3.95,5.08,7.43-.39,3.3-3.32,5.9-6.69,5.93-2.35.01-4.71,0-7.13,0Z"/>
      <path d="M36.4,48.33c0,2.74.22,5.38-.06,7.98-.35,3.28-3.47,5.7-6.81,5.7-3.36,0-6.29-2.5-6.83-5.82-.65-4.01,2.54-7.82,6.6-7.86,2.38-.02,4.76,0,7.09,0Z"/>
      <path d="M53.7,38.21c0,3.83-3.08,6.84-6.97,6.82-3.85-.02-6.92-3.09-6.9-6.92.02-3.75,3.13-6.78,6.96-6.78,3.88,0,6.93,3.03,6.92,6.88Z"/>
    </g>
  </g>
</svg>