<?xml version="1.0" encoding="UTF-8"?>
<svg id="Capa_2" data-name="Capa 2" xmlns="http://www.w3.org/2000/svg" viewBox="0 0 30 30">
  <defs>
    <style>
      .cls-1 {
        fill: #eadfd8;
      }
    </style>
  </defs>
  <g id="Capa_1-2" data-name="Capa 1">
    <g>
      <path class="cls-1" d="M30,3.63v22.73c-.08.22-.09.45-.16.69-.38,1.32-1.46,2.41-2.78,2.78-.23.07-.47.08-.69.16H3.65c-1.95-.27-3.46-1.8-3.63-3.78C.08,18.54-.11,10.84.11,3.18.53,1.42,2.04.12,3.85,0h22.37c1.89.13,3.59,1.73,3.78,3.63ZM12.05,9.14h-6.41v11.54c1.79-.06,3.64.08,5.42,0,2.48-.11,4.42-1.1,4.18-3.9-.1-1.2-.94-2.03-2.05-2.37.56-.39,1.05-.75,1.32-1.41.78-1.94-.47-3.66-2.46-3.87ZM22.5,9.9h-4.68v1.17h4.68v-1.17ZM24.38,17.05v-1.08c0-1.52-1.49-3.26-2.9-3.72-4.24-1.39-7.24,3.93-4.48,7.18,1.99,2.34,6.46,1.83,7.15-1.38h-1.9c-1.04,1.82-3.86,1.37-3.95-.85l.09-.15h6Z"/>
      <g>
        <path class="cls-1" d="M22.04,15.59h-3.69c.24-2.4,3.38-2.39,3.69,0Z"/>
        <g>
          <path class="cls-1" d="M8.16,18.69v-3.08l.09-.09h2.81c.11,0,.61.14.75.19,1.14.43,1.28,2.02.3,2.67-.14.1-.66.3-.81.3h-3.13Z"/>
          <path class="cls-1" d="M8.16,13.77v-2.64h2.96c.07,0,.51.17.6.22.7.41.81,1.51.19,2.04-.16.14-.72.38-.91.38h-2.84Z"/>
        </g>
      </g>
    </g>
  </g>
</svg>