<?xml version="1.0" encoding="UTF-8"?>
<svg id="Capa_2" data-name="Capa 2" xmlns="http://www.w3.org/2000/svg" viewBox="0 0 78.08 76.21">
  <g id="Capa_1-2" data-name="Capa 1">
    <g>
      <path d="M78.08,12.18v51.85c-.13.56-.26,1.12-.4,1.68-1.62,6.29-7.07,10.49-13.64,10.5-16.44.01-32.88,0-49.32,0-.79,0-1.57-.04-2.36-.12C5.45,75.43,0,69.47,0,62.54,0,46.25,0,29.96.02,13.68c0-1.05.14-2.14.39-3.16C1.98,4.29,7.44.04,13.88.01c5.51-.02,11.03,0,16.54,0,11.23,0,22.46-.01,33.69,0,6.3,0,11.67,4.01,13.43,9.98.21.72.36,1.46.54,2.19ZM41.73,53.69c-.1-.42-.15-.69-.24-.95-3.86-10.83-7.72-21.65-11.57-32.48-.18-.5-.43-.64-.93-.64-2.51.02-5.03,0-7.54.01-.22,0-.44.03-.53.04-.31,1.35-.5,2.63-.91,3.84-3.34,9.67-6.72,19.32-10.08,28.98-.12.34-.18.71-.26,1.06.17.07.23.12.3.12,2.06,0,4.11.03,6.17,0,.22,0,.5-.28.65-.49.16-.24.21-.56.3-.85.72-2.24,1.44-4.47,2.16-6.71h12.12c.08.22.16.43.24.64.79,2.27,1.59,4.54,2.35,6.82.16.47.39.65.87.63.71-.03,1.42,0,2.13,0,1.54,0,3.09,0,4.77,0ZM50.68,42.62c3.7,0,7.36,0,11.01,0,1.5,0,2.99-.02,4.48-.11.22-.01.59-.44.6-.68.06-1.69.23-3.42,0-5.08-.54-3.91-2.39-6.98-6.25-8.5-1.75-.69-3.58-.91-5.45-.8-3.75.23-6.88,1.68-9.05,4.84-2.59,3.76-3.22,7.93-2.29,12.35.82,3.88,2.87,6.84,6.56,8.51,1.9.86,3.92,1.18,6,1.2,2.63.02,5.22-.2,7.69-1.18.28-.11.67-.44.68-.68.06-1.77.03-3.53.03-5.29-.1-.02-.13-.04-.15-.03-.19.06-.38.14-.57.19-2.73.74-5.48,1.31-8.33.66-2.99-.69-4.67-2.51-4.95-5.39Z"/>
      <path d="M25.31,25.73c1.37,4.44,2.74,8.88,4.15,13.43h-8.33c1.36-4.52,2.7-8.96,4.03-13.41.05,0,.1-.02.15-.03Z"/>
      <path d="M50.67,37.84c.44-3.74,3.19-5.46,6.47-4.59,1.63.44,2.78,1.97,2.97,3.59.08.73-.19.96-.86.96-2.1,0-4.21.02-6.31.03-.75,0-1.51,0-2.27,0Z"/>
    </g>
  </g>
</svg>