<?xml version="1.0" encoding="UTF-8"?>
<svg id="Capa_2" data-name="Capa 2" xmlns="http://www.w3.org/2000/svg" viewBox="0 0 30 30">
  <defs>
    <style>
      .cls-1 {
        fill: #eadfd8;
      }
    </style>
  </defs>
  <g id="Capa_1-2" data-name="Capa 1">
    <path class="cls-1" d="M26.37,0c.22.08.45.09.69.16,1.33.38,2.4,1.45,2.78,2.78.07.23.08.47.16.69v22.72c-.27,1.94-1.81,3.47-3.78,3.63-7.68-.06-15.38.13-23.05-.1-1.76-.41-3.05-1.93-3.18-3.74V3.78C.13,1.89,1.73.19,3.63,0h22.73ZM10.8,8.18c0-1.41-1.14-2.55-2.56-2.55s-2.56,1.14-2.56,2.55,1.14,2.55,2.56,2.55,2.56-1.14,2.56-2.55ZM16,13.29v-.97c0-.23-.26-.47-.5-.5-.56-.07-2.51-.08-3.04,0-.19.03-.35.18-.4.36v11.8c.08.23.28.34.52.37.62.07,2.12.06,2.76,0,.38-.04.58-.15.62-.56.19-2.07-.49-6.16.54-7.84.76-1.24,2.72-1.31,3.42.02.8,1.52.2,5.89.38,7.82.03.34.21.51.56.55.64.08,2.22.06,2.87,0,.32-.03.57-.23.61-.56-.3-4.33,1.7-13.1-5.48-12.15-1.19.16-2.14.67-2.84,1.64ZM6.67,11.84c-.24.1-.37.29-.4.54l.03,11.51c.07.26.27.42.54.46.44.06,2.5.07,2.91,0,.36-.07.5-.44.51-.78l-.03-11.16c-.05-.28-.17-.52-.48-.58h-3.09Z"/>
  </g>
</svg>