<?xml version="1.0" encoding="UTF-8"?>
<svg id="Capa_2" data-name="Capa 2" xmlns="http://www.w3.org/2000/svg" viewBox="0 0 33 33">
  <g id="Capa_1-2" data-name="Capa 1">
    <g>
      <path d="M33,5.28v22.45c-.06.24-.11.49-.17.73-.69,2.72-2.98,4.54-5.77,4.54-6.95,0-13.9,0-20.84,0-.33,0-.67-.02-1-.05C2.3,32.66,0,30.08,0,27.08,0,20.03,0,12.97,0,5.92c0-.46.06-.92.17-1.37C.84,1.85,3.14.02,5.87,0c2.41-.01,4.81,0,7.22,0,4.67,0,9.34,0,14.01,0,2.67,0,4.93,1.74,5.67,4.32.09.31.15.63.23.95ZM18.78,23.3c.4,0,.79,0,1.19,0,.44,0,.44,0,.29-.45-.33-.95-.66-1.9-.98-2.85-1.29-3.73-2.58-7.46-3.87-11.19-.07-.2-.12-.35-.38-.35-1.08.01-2.17,0-3.25,0-.2,0-.27.08-.3.28-.08.52-.14,1.05-.31,1.54-1.4,4.19-2.83,8.37-4.25,12.56-.15.43-.12.46.33.47.72,0,1.44-.01,2.16,0,.27,0,.4-.1.48-.36.29-.96.6-1.92.9-2.88.06-.19.14-.27.36-.27,1.53.01,3.05.01,4.58,0,.25,0,.33.1.4.31.31.97.65,1.93.96,2.9.07.22.18.32.42.31.43-.02.86,0,1.29,0ZM24.88,17.69c0-1.76,0-3.52,0-5.28,0-.26-.07-.35-.33-.35-.78.01-1.57.02-2.35,0-.33-.01-.39.11-.39.42.01,1.08,0,2.16,0,3.23,0,2.39,0,4.78,0,7.16,0,.42.01.43.41.43.75,0,1.5-.01,2.26,0,.31,0,.41-.09.4-.41-.01-1.74,0-3.48,0-5.22ZM25.07,9.09c0-1.04-.68-1.76-1.68-1.76-.98,0-1.73.75-1.74,1.73,0,1.06.69,1.79,1.73,1.79.98,0,1.68-.73,1.69-1.76Z"/>
      <path d="M13.43,11.11c.58,1.93,1.16,3.86,1.75,5.83h-3.51c.57-1.96,1.13-3.89,1.69-5.82.02,0,.05,0,.07-.01Z"/>
    </g>
  </g>
</svg>