<?xml version="1.0" encoding="UTF-8"?>
<svg id="Capa_2" data-name="Capa 2" xmlns="http://www.w3.org/2000/svg" viewBox="0 0 33 33">
  <g id="Capa_1-2" data-name="Capa 1">
    <path d="M0,27.72c0-7.48,0-14.96,0-22.44.06-.24.11-.49.17-.73C.86,1.82,3.16,0,5.93,0,12.9,0,19.87,0,26.84,0c.31,0,.62.02.93.05,2.93.29,5.22,2.86,5.22,5.86,0,7.05,0,14.1,0,21.15,0,.81-.15,1.6-.49,2.33-1.08,2.33-2.9,3.54-5.41,3.58-3.1.04-6.21.01-9.31.01-3.96,0-7.93,0-11.89,0-2.67,0-4.93-1.74-5.68-4.32-.09-.31-.15-.63-.23-.95ZM11.42,20.45c0-.17,0-.3,0-.43,0-3.7,0-7.39,0-11.09q0-.45-.46-.45c-.7,0-1.4,0-2.09,0q-.48,0-.48.49c0,4.6,0,9.2,0,13.79,0,.08,0,.15,0,.23,0,.22.09.31.32.31,2.84,0,5.67,0,8.51,0,.21,0,.31-.07.34-.29.11-.74.24-1.47.37-2.21.05-.28-.05-.36-.32-.36-1.92.01-3.84,0-5.77,0h-.4ZM19.4,12.06c0,.14,0,.23,0,.32.04,1.3.1,2.59.11,3.89.02,2.2.01,4.4,0,6.6,0,.32.07.45.41.44.75-.02,1.5-.02,2.25,0,.31,0,.4-.09.4-.41-.01-2.14.01-4.29-.02-6.43,0-.51.19-.77.59-.96.09-.04.17-.09.26-.13.77-.33,1.58-.5,2.41-.45.24.01.32-.07.31-.32-.01-.78,0-1.56,0-2.34,0-.43-.04-.46-.46-.43-1.18.08-2.16.6-2.98,1.45-.07.07-.09.19-.13.29-.03-.04-.07-.08-.1-.11-.05-.32-.07-.66-.16-.97-.05-.16-.22-.39-.35-.4-.83-.04-1.67-.02-2.54-.02Z"/>
  </g>
</svg>