<?xml version="1.0" encoding="UTF-8"?>
<svg id="Capa_2" data-name="Capa 2" xmlns="http://www.w3.org/2000/svg" viewBox="0 0 383.28 383.46">
  <defs>
    <style>
      .cls-1 {
        fill: #eadfd8;
      }
    </style>
  </defs>
  <g id="Capa_1-2" data-name="Capa 1">
    <path class="cls-1" d="M336.87,0c2.83,1.01,5.8,1.18,8.8,2.05,16.94,4.91,30.72,18.57,35.56,35.56.85,3,1.05,5.98,2.05,8.8v290.43c-3.43,24.77-23.16,44.31-48.29,46.4-98.1-.79-196.52,1.64-294.43-1.23-22.46-5.3-38.98-24.63-40.57-47.76L.04,48.29C1.7,24.12,22.16,2.37,46.44,0h290.43ZM138,104.5c0-18.03-14.62-32.64-32.64-32.64s-32.64,14.62-32.64,32.64,14.62,32.64,32.64,32.64,32.64-14.62,32.64-32.64ZM204.38,169.92v-12.35c0-2.9-3.28-6.02-6.35-6.38-7.17-.83-32.08-1.02-38.9.06-2.44.39-4.45,2.25-5.16,4.57l.08,150.88c.97,2.93,3.55,4.36,6.51,4.71,7.89.94,27.14.77,35.23.01,4.91-.46,7.39-1.94,7.87-7.1,2.42-26.51-6.3-78.74,6.85-100.19,9.75-15.89,34.78-16.72,43.67.19,10.23,19.46,2.56,75.3,4.8,100,.4,4.37,2.72,6.56,7.13,7.09,8.2.98,28.32.79,36.73.02,4.12-.38,7.25-2.9,7.84-7.13-3.87-55.37,21.78-167.46-70-155.33-15.22,2.01-27.3,8.52-36.31,20.95ZM85.18,151.39c-3,1.27-4.68,3.66-5.07,6.91l.34,147.16c.9,3.33,3.49,5.39,6.86,5.87,5.66.8,31.99.95,37.19-.1,4.58-.93,6.38-5.62,6.56-9.91l-.36-142.66c-.62-3.56-2.23-6.61-6.07-7.4l-39.44.14Z"/>
  </g>
</svg>