<?xml version="1.0" encoding="UTF-8"?>
<svg id="Capa_2" data-name="Capa 2" xmlns="http://www.w3.org/2000/svg" viewBox="0 0 33 33">
  <g id="Capa_1-2" data-name="Capa 1">
    <g>
      <path d="M29.97,33H3.03s-.09-.05-.14-.06c-1.48-.33-2.4-1.25-2.81-2.7-.02-.09-.05-.18-.08-.27C0,20.99,0,12.01,0,3.03c.02-.06.05-.11.06-.17C.4,1.21,1.85,0,3.52,0,12.18,0,20.83,0,29.49,0c1.92,0,3.51,1.59,3.51,3.51,0,8.66,0,17.31,0,25.97,0,1.54-1.04,2.93-2.51,3.38-.17.05-.34.1-.52.15ZM22.69,12.83c.11-.09.22-.17.32-.26,1.35-1.17,1.89-2.64,1.5-4.38-.46-2.06-2.21-3.4-4.35-3.4-2.44,0-4.88,0-7.31,0-.27,0-.54,0-.8.06-1.8.36-3.04,1.4-3.52,3.18-.48,1.8.05,3.34,1.48,4.56.1.09.21.17.32.26-1.27.93-1.96,2.13-1.95,3.68,0,1.55.71,2.74,1.95,3.65-.14.11-.25.19-.35.28-1.34,1.16-1.88,2.63-1.49,4.36.5,2.26,2.57,3.64,4.93,3.36,2.12-.25,3.8-2.19,3.8-4.4,0-1.22,0-2.45,0-3.67,0-.1,0-.2.02-.32,2.29,1.87,5.17,1.15,6.51-.61,1.33-1.74,1.32-4.63-1.05-6.34Z"/>
      <path d="M15.78,13.54v5.86s-.04.04-.05.04c-1.17-.01-2.34.05-3.5-.07-1.41-.14-2.43-1.44-2.43-2.88,0-1.44,1.03-2.69,2.42-2.9.38-.06.77-.06,1.15-.06.79,0,1.59,0,2.41,0Z"/>
      <path d="M15.77,12.09c-1.17,0-2.33.11-3.46-.03-1.58-.19-2.55-1.47-2.51-3.07.03-1.4,1.15-2.62,2.65-2.75,1.09-.09,2.2-.02,3.32-.02v5.86Z"/>
      <path d="M17.22,12.12v-5.86s.04-.04.06-.04c1.24.03,2.5-.06,3.72.13,1.46.23,2.37,1.71,2.2,3.21-.17,1.43-1.43,2.55-2.89,2.56-1.02,0-2.03,0-3.08,0Z"/>
      <path d="M15.73,20.88c0,1.18.1,2.33-.02,3.45-.15,1.42-1.5,2.46-2.94,2.46-1.45,0-2.72-1.08-2.95-2.52-.28-1.74,1.1-3.38,2.85-3.4,1.03,0,2.06,0,3.06,0Z"/>
      <path d="M23.21,16.51c0,1.65-1.33,2.95-3.01,2.95-1.66,0-2.99-1.34-2.98-2.99,0-1.62,1.35-2.93,3.01-2.93,1.68,0,2.99,1.31,2.99,2.97Z"/>
    </g>
  </g>
</svg>